<svg width="456" height="66" viewBox="0 0 456 66" fill="none" xmlns="http://www.w3.org/2000/svg">
<path d="M454.248 2.27645C454.703 8.57511 449.915 15.463 443.957 18.2921C429.325 25.2387 415.092 35.4829 398.859 38.6842C384.584 41.4991 370.222 44.1635 355.899 47.2569C343.157 50.0088 328.285 53.5096 315.273 52.1135C303.715 50.8734 292.03 51.2391 280.453 49.9971C272.875 49.184 265.139 49.261 257.53 48.7054C248.584 48.0522 240.145 45.9831 231.51 44.1499C219.702 41.6433 207.383 41.4937 195.775 38.3714C169.523 31.3102 139.356 27.1712 111.791 29.1609C94.329 30.4214 77.0569 28.141 59.5527 30.8272C36.7338 34.3291 11.5264 43.2783 2.11844 64.1356" stroke="#5B1110" stroke-width="3" stroke-linecap="round" stroke-dasharray="6 20"/>
</svg>
