<svg xmlns="http://www.w3.org/2000/svg" viewBox="0 0 29 29" fill="none">
    <path fill-rule="evenodd" clip-rule="evenodd" d="M9.90042 0C10.1922 0 10.472 0.115892 10.6782 0.322182C10.8845 0.528472 11.0004 0.808262 11.0004 1.1V3.3088C13.6205 3.34828 16.2365 3.52993 18.8368 3.85293C18.9802 3.87085 19.1187 3.91683 19.2443 3.98825C19.3699 4.05967 19.4803 4.15514 19.569 4.2692C19.6577 4.38326 19.7231 4.51368 19.7614 4.65302C19.7998 4.79235 19.8103 4.93787 19.7924 5.08127C19.7744 5.22466 19.7285 5.36312 19.657 5.48875C19.5856 5.61437 19.4902 5.7247 19.3761 5.81343C19.262 5.90216 19.1316 5.96755 18.9923 6.00588C18.8529 6.04421 18.7074 6.05471 18.564 6.0368C17.5934 5.91526 16.6203 5.81452 15.6454 5.73467C14.7902 9.07234 13.3129 12.2186 11.2908 15.0084C11.7558 15.5716 12.2442 16.1128 12.7546 16.6335C12.8615 16.7352 12.9468 16.8575 13.0055 16.9929C13.0641 17.1284 13.0949 17.2742 13.0961 17.4218C13.0972 17.5694 13.0686 17.7157 13.012 17.8521C12.9553 17.9884 12.8719 18.1119 12.7665 18.2153C12.6612 18.3187 12.5361 18.3998 12.3987 18.4538C12.2614 18.5078 12.1146 18.5337 11.967 18.5298C11.8195 18.5259 11.6742 18.4923 11.5399 18.4311C11.4056 18.3699 11.285 18.2823 11.1852 18.1735C10.7411 17.7224 10.3126 17.2562 9.90042 16.7757C7.58512 19.4815 4.76821 21.7137 1.60496 23.3493C1.47659 23.4156 1.33642 23.4559 1.19247 23.468C1.04851 23.4801 0.903585 23.4637 0.765962 23.4198C0.62834 23.3759 0.500716 23.3053 0.390377 23.212C0.280039 23.1188 0.189146 23.0047 0.12289 22.8763C0.056634 22.748 0.0163112 22.6078 0.00422402 22.4638C-0.00786314 22.3199 0.00852216 22.175 0.0524443 22.0373C0.0963664 21.8997 0.166965 21.7721 0.26021 21.6618C0.353454 21.5514 0.467519 21.4605 0.59589 21.3943C3.63719 19.8212 6.32914 17.6495 8.51002 15.0099C7.23035 13.2428 6.16586 11.3295 5.33909 9.3104C5.23513 9.04174 5.24072 8.74301 5.35464 8.47842C5.46857 8.21383 5.68174 8.00449 5.94836 7.89539C6.21497 7.78628 6.51375 7.78612 6.78048 7.89494C7.04721 8.00376 7.26061 8.21287 7.37482 8.47733C8.04926 10.1235 8.89583 11.6937 9.90042 13.1619C11.4826 10.8494 12.6679 8.28915 13.4072 5.58653C9.34503 5.38506 5.27302 5.53571 1.23682 6.0368C0.947225 6.07298 0.655117 5.99263 0.42476 5.81343C0.194403 5.63423 0.044666 5.37087 0.00849047 5.08127C-0.0276851 4.79167 0.0526636 4.49956 0.231861 4.2692C0.411058 4.03885 0.674425 3.88911 0.964024 3.85293C3.56433 3.52929 6.18034 3.34764 8.80042 3.3088V1.1C8.80042 0.808262 8.91632 0.528472 9.12261 0.322182C9.3289 0.115892 9.60869 0 9.90042 0ZM19.8004 9.9C20.0099 9.89992 20.215 9.95964 20.3917 10.0721C20.5683 10.1846 20.7092 10.3452 20.7978 10.5351L28.4978 27.0351C28.5588 27.166 28.5935 27.3078 28.5998 27.4521C28.606 27.5965 28.5838 27.7407 28.5344 27.8765C28.485 28.0122 28.4093 28.137 28.3116 28.2435C28.214 28.35 28.0963 28.4363 27.9654 28.4973C27.7008 28.6206 27.3982 28.6338 27.124 28.534C26.8497 28.4341 26.6264 28.2294 26.5031 27.9649L24.746 24.2H14.8548L13.0978 27.9649C12.9745 28.2294 12.7511 28.4341 12.4769 28.534C12.2027 28.6338 11.9 28.6206 11.6355 28.4973C11.371 28.374 11.1663 28.1507 11.0664 27.8765C10.9666 27.6022 10.9798 27.2996 11.1031 27.0351L18.8031 10.5351C18.8916 10.3452 19.0325 10.1846 19.2092 10.0721C19.3859 9.95964 19.591 9.89992 19.8004 9.9ZM15.8815 22H23.7194L19.8004 13.6019L15.8815 22Z" fill="#5B1110"/>
</svg>